<svg xmlns="http://www.w3.org/2000/svg" fill="none" viewBox="0 0 40 40" height="40" width="40">
<path fill="#8B9B7F" d="M3.33325 20C3.33325 10.795 10.7949 3.33331 19.9999 3.33331C29.2049 3.33331 36.6666 10.795 36.6666 20C36.6666 29.205 29.2049 36.6666 19.9999 36.6666C10.7949 36.6666 3.33325 29.205 3.33325 20ZM26.1783 17.845C26.4818 17.5306 26.6498 17.1096 26.646 16.6726C26.6422 16.2357 26.467 15.8176 26.1579 15.5086C25.8489 15.1996 25.4309 15.0243 24.9939 15.0205C24.5569 15.0167 24.1359 15.1847 23.8216 15.4883L18.3333 20.9766L16.1783 18.8216C15.8639 18.518 15.4429 18.3501 15.0059 18.3539C14.5689 18.3577 14.1509 18.5329 13.8419 18.8419C13.5329 19.151 13.3576 19.569 13.3538 20.006C13.35 20.443 13.518 20.864 13.8216 21.1783L17.1549 24.5116C17.4675 24.8241 17.8913 24.9996 18.3333 24.9996C18.7752 24.9996 19.199 24.8241 19.5116 24.5116L26.1783 17.845Z" clip-rule="evenodd" fill-rule="evenodd"></path>
</svg>
