<svg id="st_wishlist_icons" xmlns="http://www.w3.org/2000/svg"> <symbol id="st_loading_icon_1" viewBox="0 0 32 32"><path d="M0.001 16.051l-0.001 0c0 0 0 0.003 0.001 0.007 0.003 0.121 0.017 0.24 0.041 0.355 0.006 0.055 0.013 0.114 0.021 0.18 0.007 0.059 0.014 0.122 0.022 0.19 0.012 0.080 0.024 0.165 0.037 0.256 0.027 0.18 0.056 0.379 0.091 0.592 0.042 0.201 0.088 0.419 0.136 0.652 0.022 0.116 0.055 0.235 0.087 0.356s0.065 0.247 0.099 0.375c0.018 0.064 0.032 0.129 0.053 0.194s0.041 0.131 0.062 0.197 0.085 0.268 0.129 0.406c0.011 0.035 0.022 0.069 0.033 0.104 0.013 0.034 0.025 0.069 0.038 0.104 0.026 0.069 0.052 0.139 0.078 0.21 0.053 0.14 0.107 0.284 0.162 0.429 0.061 0.143 0.124 0.288 0.188 0.435 0.032 0.073 0.064 0.147 0.096 0.222s0.071 0.147 0.107 0.221c0.073 0.147 0.146 0.297 0.221 0.448 0.077 0.15 0.163 0.297 0.245 0.448 0.042 0.075 0.084 0.15 0.126 0.226s0.091 0.148 0.136 0.223c0.092 0.148 0.185 0.298 0.279 0.448 0.395 0.59 0.834 1.174 1.319 1.727 0.491 0.549 1.023 1.070 1.584 1.55 0.568 0.473 1.165 0.903 1.773 1.285 0.613 0.376 1.239 0.697 1.856 0.973 0.156 0.064 0.311 0.127 0.465 0.19 0.077 0.030 0.152 0.064 0.229 0.091s0.154 0.054 0.23 0.081 0.302 0.108 0.453 0.156c0.151 0.045 0.3 0.089 0.447 0.133 0.074 0.021 0.146 0.045 0.219 0.063s0.146 0.036 0.218 0.053c0.144 0.035 0.286 0.069 0.425 0.103 0.141 0.027 0.279 0.054 0.415 0.080 0.068 0.013 0.135 0.026 0.201 0.038 0.033 0.006 0.066 0.012 0.099 0.019 0.033 0.005 0.066 0.009 0.099 0.014 0.131 0.018 0.259 0.036 0.384 0.053 0.062 0.009 0.124 0.017 0.185 0.026s0.122 0.012 0.182 0.018c0.119 0.011 0.236 0.021 0.349 0.031s0.222 0.021 0.329 0.023c0.007 0 0.014 0 0.021 0.001 0.019 1.088 0.906 1.964 1.999 1.964 0.017 0 0.034-0.001 0.051-0.001v0.001c0 0 0.003-0 0.007-0.001 0.121-0.003 0.24-0.017 0.355-0.041 0.055-0.006 0.114-0.013 0.18-0.021 0.059-0.007 0.122-0.014 0.19-0.022 0.080-0.012 0.165-0.024 0.256-0.037 0.18-0.027 0.379-0.056 0.592-0.091 0.201-0.042 0.419-0.088 0.652-0.136 0.116-0.022 0.235-0.056 0.356-0.087s0.247-0.065 0.375-0.099c0.064-0.018 0.129-0.032 0.194-0.053s0.13-0.041 0.197-0.062 0.268-0.085 0.406-0.129c0.035-0.011 0.069-0.022 0.104-0.033 0.034-0.013 0.069-0.025 0.104-0.038 0.069-0.026 0.139-0.052 0.21-0.078 0.14-0.053 0.284-0.107 0.429-0.162 0.143-0.061 0.288-0.124 0.436-0.188 0.073-0.032 0.147-0.064 0.222-0.096s0.147-0.071 0.221-0.107c0.147-0.073 0.297-0.146 0.448-0.221 0.15-0.077 0.297-0.163 0.448-0.245 0.075-0.042 0.15-0.084 0.226-0.126s0.148-0.091 0.223-0.136c0.148-0.092 0.298-0.185 0.448-0.279 0.59-0.395 1.174-0.834 1.727-1.319 0.549-0.491 1.070-1.023 1.55-1.584 0.473-0.568 0.903-1.165 1.285-1.773 0.376-0.613 0.697-1.239 0.973-1.855 0.064-0.156 0.127-0.311 0.19-0.465 0.030-0.077 0.064-0.152 0.091-0.229s0.054-0.154 0.081-0.23 0.108-0.302 0.156-0.453c0.045-0.151 0.089-0.3 0.133-0.447 0.021-0.074 0.045-0.146 0.063-0.219s0.036-0.146 0.053-0.218c0.035-0.144 0.069-0.286 0.103-0.425 0.027-0.141 0.054-0.279 0.080-0.415 0.013-0.068 0.026-0.135 0.038-0.201 0.006-0.033 0.012-0.066 0.019-0.099 0.005-0.033 0.009-0.066 0.014-0.099 0.018-0.131 0.036-0.259 0.053-0.384 0.009-0.062 0.017-0.124 0.026-0.185s0.012-0.122 0.018-0.182c0.011-0.119 0.021-0.236 0.031-0.349s0.021-0.222 0.023-0.329c0.001-0.017 0.001-0.033 0.002-0.049 1.101-0.005 1.992-0.898 1.992-2 0-0.017-0.001-0.034-0.001-0.051h0.001c0 0-0-0.003-0.001-0.007-0.003-0.121-0.017-0.24-0.041-0.355-0.006-0.055-0.013-0.114-0.021-0.181-0.007-0.059-0.014-0.122-0.022-0.19-0.012-0.080-0.024-0.165-0.037-0.255-0.027-0.18-0.056-0.379-0.091-0.592-0.042-0.201-0.088-0.419-0.136-0.652-0.022-0.116-0.055-0.235-0.087-0.357s-0.065-0.247-0.099-0.375c-0.018-0.064-0.032-0.129-0.053-0.194s-0.041-0.13-0.062-0.197-0.085-0.268-0.129-0.406c-0.011-0.034-0.022-0.069-0.033-0.104-0.013-0.034-0.025-0.069-0.038-0.104-0.026-0.069-0.052-0.139-0.078-0.21-0.053-0.141-0.107-0.284-0.162-0.429-0.061-0.143-0.124-0.288-0.188-0.435-0.032-0.073-0.064-0.147-0.096-0.222s-0.071-0.147-0.107-0.221c-0.073-0.147-0.146-0.297-0.221-0.448-0.077-0.15-0.163-0.297-0.245-0.448-0.042-0.075-0.084-0.15-0.126-0.226s-0.091-0.148-0.136-0.223c-0.092-0.148-0.185-0.298-0.279-0.448-0.395-0.59-0.834-1.174-1.319-1.727-0.491-0.549-1.023-1.070-1.584-1.55-0.568-0.473-1.165-0.903-1.773-1.285-0.613-0.376-1.239-0.697-1.855-0.973-0.156-0.064-0.311-0.127-0.465-0.19-0.077-0.030-0.152-0.063-0.229-0.091s-0.154-0.054-0.23-0.081-0.302-0.108-0.453-0.156c-0.151-0.045-0.3-0.089-0.447-0.133-0.074-0.021-0.146-0.045-0.219-0.063s-0.146-0.036-0.218-0.053c-0.144-0.035-0.286-0.069-0.425-0.103-0.141-0.027-0.279-0.054-0.415-0.080-0.068-0.013-0.135-0.026-0.201-0.038-0.033-0.006-0.066-0.012-0.099-0.019-0.033-0.005-0.066-0.009-0.099-0.014-0.131-0.018-0.259-0.036-0.384-0.053-0.062-0.009-0.124-0.017-0.185-0.026s-0.122-0.012-0.182-0.018c-0.119-0.010-0.236-0.021-0.349-0.031s-0.222-0.021-0.329-0.023c-0.027-0.001-0.052-0.002-0.078-0.003-0.020-1.087-0.907-1.962-1.999-1.962-0.017 0-0.034 0.001-0.051 0.001l-0-0.001c0 0-0.003 0-0.007 0.001-0.121 0.003-0.24 0.017-0.355 0.041-0.055 0.006-0.114 0.013-0.181 0.021-0.059 0.007-0.122 0.014-0.19 0.022-0.080 0.012-0.165 0.024-0.255 0.037-0.18 0.027-0.379 0.056-0.592 0.091-0.201 0.042-0.419 0.088-0.652 0.136-0.116 0.022-0.235 0.056-0.356 0.087s-0.247 0.065-0.375 0.099c-0.064 0.018-0.129 0.032-0.194 0.053s-0.13 0.041-0.197 0.062-0.268 0.085-0.406 0.129c-0.034 0.011-0.069 0.022-0.104 0.033-0.034 0.013-0.069 0.025-0.104 0.038-0.069 0.026-0.139 0.052-0.21 0.078-0.14 0.053-0.284 0.107-0.429 0.162-0.143 0.061-0.288 0.124-0.435 0.188-0.073 0.032-0.147 0.064-0.222 0.096s-0.147 0.071-0.221 0.107c-0.147 0.073-0.297 0.146-0.448 0.221-0.15 0.077-0.297 0.163-0.448 0.245-0.075 0.042-0.15 0.084-0.226 0.126s-0.148 0.091-0.223 0.136c-0.148 0.092-0.298 0.185-0.448 0.279-0.59 0.395-1.174 0.834-1.727 1.319-0.549 0.491-1.070 1.023-1.55 1.584-0.473 0.568-0.903 1.165-1.285 1.773-0.376 0.613-0.697 1.239-0.973 1.855-0.064 0.156-0.127 0.311-0.19 0.465-0.030 0.077-0.063 0.152-0.091 0.229s-0.054 0.154-0.081 0.23-0.108 0.302-0.156 0.453c-0.045 0.151-0.089 0.3-0.132 0.447-0.021 0.074-0.045 0.146-0.063 0.219s-0.036 0.146-0.053 0.218c-0.035 0.144-0.069 0.286-0.103 0.425-0.027 0.141-0.054 0.279-0.080 0.415-0.013 0.068-0.026 0.135-0.038 0.201-0.006 0.033-0.012 0.066-0.019 0.099-0.005 0.033-0.009 0.066-0.014 0.099-0.018 0.131-0.036 0.259-0.053 0.384-0.009 0.062-0.017 0.124-0.026 0.185s-0.012 0.122-0.018 0.182c-0.010 0.119-0.021 0.236-0.031 0.349s-0.021 0.222-0.023 0.329c-0.001 0.017-0.001 0.034-0.002 0.051-1.074 0.035-1.934 0.916-1.934 1.998 0 0.017 0.001 0.034 0.001 0.051zM2.297 14.022c0.001-0.006 0.003-0.012 0.004-0.018 0.020-0.101 0.051-0.204 0.080-0.311s0.059-0.215 0.090-0.327c0.016-0.056 0.029-0.113 0.048-0.169s0.038-0.113 0.057-0.171 0.077-0.233 0.117-0.353c0.010-0.030 0.020-0.060 0.030-0.090 0.012-0.030 0.023-0.060 0.035-0.090 0.023-0.060 0.047-0.121 0.071-0.182 0.047-0.122 0.096-0.246 0.145-0.373 0.055-0.124 0.111-0.25 0.168-0.377 0.028-0.064 0.057-0.128 0.086-0.192s0.064-0.127 0.095-0.191c0.065-0.128 0.13-0.257 0.197-0.388 0.069-0.129 0.145-0.257 0.219-0.387 0.037-0.065 0.074-0.13 0.112-0.195s0.081-0.128 0.121-0.193c0.082-0.128 0.164-0.257 0.247-0.388 0.351-0.509 0.739-1.012 1.167-1.489 0.434-0.472 0.901-0.919 1.394-1.33 0.499-0.404 1.021-0.77 1.552-1.094 0.535-0.319 1.081-0.589 1.617-0.821 0.136-0.053 0.271-0.106 0.404-0.158 0.067-0.025 0.132-0.053 0.199-0.076s0.134-0.045 0.2-0.067 0.262-0.090 0.392-0.129c0.131-0.037 0.26-0.073 0.387-0.109 0.064-0.017 0.126-0.037 0.189-0.052s0.126-0.029 0.189-0.043c0.124-0.028 0.247-0.056 0.367-0.084 0.121-0.021 0.241-0.043 0.358-0.063 0.058-0.010 0.116-0.021 0.173-0.031 0.029-0.005 0.057-0.010 0.085-0.015 0.029-0.003 0.057-0.007 0.085-0.010 0.113-0.014 0.223-0.028 0.331-0.041 0.054-0.007 0.107-0.013 0.159-0.020s0.105-0.008 0.157-0.013c0.103-0.007 0.203-0.015 0.3-0.022s0.191-0.016 0.283-0.016c0.183-0.004 0.354-0.008 0.512-0.012 0.146 0.005 0.28 0.010 0.401 0.014 0.060 0.002 0.116 0.003 0.17 0.005 0.066 0.004 0.128 0.008 0.186 0.012 0.067 0.004 0.127 0.008 0.182 0.012 0.102 0.016 0.206 0.024 0.312 0.024 0.015 0 0.029-0.001 0.044-0.001 0.004 0 0.007 0 0.007 0v-0.001c0.973-0.024 1.773-0.743 1.924-1.68 0.017 0.004 0.033 0.007 0.050 0.011 0.101 0.020 0.204 0.051 0.311 0.080s0.215 0.059 0.327 0.090c0.056 0.016 0.113 0.029 0.169 0.048s0.113 0.038 0.171 0.057 0.233 0.077 0.353 0.117c0.030 0.010 0.060 0.020 0.090 0.030 0.030 0.012 0.060 0.023 0.090 0.035 0.060 0.023 0.121 0.047 0.182 0.071 0.122 0.047 0.246 0.096 0.373 0.145 0.124 0.055 0.25 0.111 0.378 0.168 0.064 0.028 0.128 0.057 0.192 0.086s0.127 0.064 0.191 0.095c0.128 0.065 0.257 0.13 0.388 0.197 0.13 0.069 0.257 0.145 0.387 0.219 0.065 0.037 0.13 0.074 0.195 0.112s0.128 0.081 0.193 0.121c0.128 0.082 0.257 0.164 0.388 0.247 0.509 0.351 1.012 0.739 1.489 1.167 0.472 0.434 0.919 0.901 1.33 1.394 0.404 0.499 0.77 1.021 1.094 1.552 0.319 0.535 0.589 1.081 0.821 1.617 0.053 0.136 0.106 0.271 0.158 0.404 0.025 0.067 0.053 0.132 0.076 0.199s0.045 0.134 0.067 0.2 0.090 0.262 0.129 0.392c0.037 0.131 0.073 0.26 0.109 0.387 0.017 0.064 0.037 0.126 0.052 0.189s0.029 0.126 0.043 0.189c0.028 0.124 0.056 0.247 0.084 0.367 0.021 0.121 0.043 0.241 0.063 0.358 0.010 0.058 0.020 0.116 0.031 0.173 0.005 0.029 0.010 0.057 0.015 0.085 0.003 0.029 0.007 0.057 0.010 0.085 0.014 0.113 0.028 0.223 0.041 0.331 0.007 0.054 0.014 0.107 0.020 0.159s0.008 0.105 0.013 0.157c0.007 0.103 0.015 0.203 0.022 0.3s0.016 0.191 0.016 0.283c0.004 0.183 0.008 0.354 0.012 0.512-0.005 0.146-0.010 0.28-0.014 0.401-0.002 0.060-0.003 0.116-0.005 0.17-0.004 0.066-0.008 0.128-0.012 0.186-0.004 0.067-0.008 0.127-0.012 0.182-0.016 0.102-0.024 0.206-0.024 0.312 0 0.015 0.001 0.029 0.001 0.044-0 0.004-0 0.007-0 0.007h0.001c0.024 0.961 0.726 1.754 1.646 1.918-0.002 0.009-0.004 0.018-0.006 0.028-0.020 0.102-0.051 0.204-0.080 0.311s-0.059 0.215-0.090 0.327c-0.016 0.056-0.029 0.113-0.048 0.169s-0.038 0.113-0.057 0.171-0.077 0.233-0.117 0.353c-0.010 0.030-0.020 0.060-0.030 0.090-0.012 0.030-0.023 0.060-0.035 0.090-0.023 0.060-0.047 0.121-0.071 0.182-0.047 0.122-0.096 0.246-0.145 0.373-0.055 0.124-0.111 0.25-0.169 0.378-0.028 0.064-0.057 0.128-0.086 0.192s-0.064 0.127-0.095 0.191c-0.065 0.128-0.13 0.257-0.197 0.388-0.069 0.129-0.145 0.257-0.219 0.387-0.037 0.065-0.074 0.13-0.112 0.195s-0.081 0.128-0.121 0.193c-0.082 0.128-0.164 0.257-0.247 0.388-0.351 0.509-0.738 1.012-1.167 1.489-0.434 0.472-0.901 0.919-1.394 1.33-0.499 0.404-1.021 0.77-1.552 1.094-0.535 0.319-1.081 0.589-1.617 0.821-0.136 0.053-0.271 0.106-0.404 0.158-0.067 0.025-0.132 0.053-0.199 0.076s-0.134 0.045-0.2 0.067-0.262 0.090-0.392 0.129c-0.131 0.037-0.26 0.073-0.387 0.109-0.064 0.017-0.126 0.037-0.189 0.052s-0.126 0.029-0.189 0.043c-0.124 0.028-0.247 0.056-0.367 0.084-0.122 0.021-0.241 0.043-0.358 0.063-0.058 0.010-0.116 0.021-0.173 0.031-0.029 0.005-0.057 0.010-0.085 0.015-0.029 0.003-0.057 0.007-0.085 0.010-0.113 0.014-0.223 0.028-0.331 0.041-0.054 0.007-0.107 0.014-0.159 0.020s-0.105 0.008-0.157 0.013c-0.103 0.007-0.203 0.015-0.3 0.022s-0.191 0.016-0.283 0.016c-0.183 0.004-0.354 0.008-0.512 0.012-0.146-0.005-0.28-0.010-0.401-0.014-0.060-0.002-0.116-0.003-0.17-0.005-0.066-0.004-0.128-0.008-0.186-0.012-0.067-0.004-0.127-0.008-0.182-0.012-0.102-0.016-0.206-0.024-0.312-0.024-0.015 0-0.029 0.001-0.044 0.001-0.004-0-0.007-0-0.007-0v0.001c-0.969 0.024-1.766 0.737-1.921 1.668-0.1-0.020-0.201-0.050-0.306-0.079-0.106-0.029-0.215-0.059-0.327-0.090-0.056-0.016-0.113-0.029-0.169-0.048s-0.113-0.038-0.171-0.057-0.233-0.077-0.353-0.117c-0.030-0.010-0.060-0.020-0.090-0.030-0.030-0.012-0.060-0.023-0.090-0.035-0.060-0.023-0.121-0.047-0.182-0.071-0.122-0.048-0.246-0.096-0.373-0.145-0.124-0.055-0.25-0.111-0.377-0.168-0.064-0.028-0.128-0.057-0.192-0.086s-0.127-0.064-0.191-0.095c-0.128-0.065-0.257-0.13-0.388-0.197-0.13-0.069-0.257-0.145-0.387-0.219-0.065-0.037-0.13-0.074-0.195-0.112s-0.128-0.081-0.193-0.121c-0.128-0.082-0.257-0.164-0.388-0.247-0.509-0.351-1.012-0.738-1.489-1.166-0.472-0.434-0.919-0.901-1.33-1.394-0.404-0.499-0.77-1.021-1.094-1.552-0.319-0.535-0.589-1.081-0.821-1.617-0.053-0.136-0.106-0.271-0.158-0.404-0.025-0.067-0.053-0.132-0.076-0.199s-0.045-0.134-0.067-0.2-0.090-0.262-0.129-0.392c-0.037-0.131-0.073-0.26-0.109-0.387-0.017-0.064-0.037-0.126-0.052-0.189s-0.029-0.126-0.043-0.189c-0.028-0.124-0.056-0.247-0.084-0.367-0.021-0.121-0.043-0.241-0.063-0.358-0.010-0.058-0.021-0.116-0.031-0.173-0.005-0.029-0.010-0.057-0.015-0.085-0.003-0.029-0.007-0.057-0.010-0.085-0.014-0.113-0.028-0.223-0.041-0.331-0.007-0.054-0.013-0.107-0.020-0.159s-0.008-0.105-0.013-0.157c-0.007-0.103-0.015-0.203-0.022-0.3s-0.016-0.191-0.016-0.283c-0.004-0.183-0.008-0.354-0.012-0.512 0.005-0.146 0.010-0.28 0.014-0.401 0.002-0.060 0.003-0.116 0.005-0.17 0.004-0.066 0.008-0.128 0.012-0.186 0.004-0.067 0.008-0.127 0.012-0.182 0.015-0.102 0.024-0.206 0.024-0.312 0-0.015-0.001-0.029-0.001-0.044 0-0.004 0.001-0.007 0.001-0.007h-0.001c-0.024-0.981-0.754-1.786-1.701-1.927z" fill="currentColor"><animateTransform attributeType="xml" attributeName="transform" type="rotate" from="0 16 16" to="360 16 16" dur="1s" repeatCount="indefinite"></animateTransform></path></symbol> <symbol id="st_loading_icon_2" viewBox="0 0 80 80"><g><path fill="currentColor" d="M10,40c0,0,0-0.4,0-1.1c0-0.3,0-0.8,0-1.3c0-0.3,0-0.5,0-0.8c0-0.3,0.1-0.6,0.1-0.9c0.1-0.6,0.1-1.4,0.2-2.1 c0.2-0.8,0.3-1.6,0.5-2.5c0.2-0.9,0.6-1.8,0.8-2.8c0.3-1,0.8-1.9,1.2-3c0.5-1,1.1-2,1.7-3.1c0.7-1,1.4-2.1,2.2-3.1 c1.6-2.1,3.7-3.9,6-5.6c2.3-1.7,5-3,7.9-4.1c0.7-0.2,1.5-0.4,2.2-0.7c0.7-0.3,1.5-0.3,2.3-0.5c0.8-0.2,1.5-0.3,2.3-0.4l1.2-0.1 l0.6-0.1l0.3,0l0.1,0l0.1,0l0,0c0.1,0-0.1,0,0.1,0c1.5,0,2.9-0.1,4.5,0.2c0.8,0.1,1.6,0.1,2.4,0.3c0.8,0.2,1.5,0.3,2.3,0.5 c3,0.8,5.9,2,8.5,3.6c2.6,1.6,4.9,3.4,6.8,5.4c1,1,1.8,2.1,2.7,3.1c0.8,1.1,1.5,2.1,2.1,3.2c0.6,1.1,1.2,2.1,1.6,3.1 c0.4,1,0.9,2,1.2,3c0.3,1,0.6,1.9,0.8,2.7c0.2,0.9,0.3,1.6,0.5,2.4c0.1,0.4,0.1,0.7,0.2,1c0,0.3,0.1,0.6,0.1,0.9 c0.1,0.6,0.1,1,0.1,1.4C74,39.6,74,40,74,40c0.2,2.2-1.5,4.1-3.7,4.3s-4.1-1.5-4.3-3.7c0-0.1,0-0.2,0-0.3l0-0.4c0,0,0-0.3,0-0.9 c0-0.3,0-0.7,0-1.1c0-0.2,0-0.5,0-0.7c0-0.2-0.1-0.5-0.1-0.8c-0.1-0.6-0.1-1.2-0.2-1.9c-0.1-0.7-0.3-1.4-0.4-2.2 c-0.2-0.8-0.5-1.6-0.7-2.4c-0.3-0.8-0.7-1.7-1.1-2.6c-0.5-0.9-0.9-1.8-1.5-2.7c-0.6-0.9-1.2-1.8-1.9-2.7c-1.4-1.8-3.2-3.4-5.2-4.9 c-2-1.5-4.4-2.7-6.9-3.6c-0.6-0.2-1.3-0.4-1.9-0.6c-0.7-0.2-1.3-0.3-1.9-0.4c-1.2-0.3-2.8-0.4-4.2-0.5l-2,0c-0.7,0-1.4,0.1-2.1,0.1 c-0.7,0.1-1.4,0.1-2,0.3c-0.7,0.1-1.3,0.3-2,0.4c-2.6,0.7-5.2,1.7-7.5,3.1c-2.2,1.4-4.3,2.9-6,4.7c-0.9,0.8-1.6,1.8-2.4,2.7 c-0.7,0.9-1.3,1.9-1.9,2.8c-0.5,1-1,1.9-1.4,2.8c-0.4,0.9-0.8,1.8-1,2.6c-0.3,0.9-0.5,1.6-0.7,2.4c-0.2,0.7-0.3,1.4-0.4,2.1 c-0.1,0.3-0.1,0.6-0.2,0.9c0,0.3-0.1,0.6-0.1,0.8c0,0.5-0.1,0.9-0.1,1.3C10,39.6,10,40,10,40z"><animateTransform attributeType="xml" attributeName="transform" type="rotate" from="0 40 40" to="360 40 40" dur="1s" repeatCount="indefinite"></animateTransform></path></g></symbol> <symbol id="st_loading_icon_3" viewBox="0 0 50 50"><g><path fill="currentColor" d="M25,5A20.14,20.14,0,0,1,45,22.88a2.51,2.51,0,0,0,2.49,2.26h0A2.52,2.52,0,0,0,50,22.33a25.14,25.14,0,0,0-50,0,2.52,2.52,0,0,0,2.5,2.81h0A2.51,2.51,0,0,0,5,22.88,20.14,20.14,0,0,1,25,5Z"><animateTransform attributeName="transform" type="rotate" from="0 25 25" to="360 25 25" dur="1s" repeatCount="indefinite"></animateTransform> </path> </g> </symbol> <symbol id="st_loading_icon_4" viewBox="0 0 80 80"> <g> <path id="spinner" fill="currentColor" d="M40,72C22.4,72,8,57.6,8,40C8,22.4,22.4,8,40,8c17.6,0,32,14.4,32,32c0,1.1-0.9,2-2,2s-2-0.9-2-2c0-15.4-12.6-28-28-28S12,24.6,12,40s12.6,28,28,28c1.1,0,2,0.9,2,2S41.1,72,40,72z"> <animateTransform attributeType="xml" attributeName="transform" type="rotate" from="0 40 40" to="360 40 40" dur="1s" repeatCount="indefinite"></animateTransform> </path> </g> </symbol> <symbol id="st_loading_icon_5" viewBox="0 0 80 80"> <g> <path fill="currentColor" d="M10,40c0,0,0-0.4,0-1.1c0-0.3,0-0.8,0-1.3c0-0.3,0-0.5,0-0.8c0-0.3,0.1-0.6,0.1-0.9c0.1-0.6,0.1-1.4,0.2-2.1c0.2-0.8,0.3-1.6,0.5-2.5c0.2-0.9,0.6-1.8,0.8-2.8c0.3-1,0.8-1.9,1.2-3c0.5-1,1.1-2,1.7-3.1c0.7-1,1.4-2.1,2.2-3.1c1.6-2.1,3.7-3.9,6-5.6c2.3-1.7,5-3,7.9-4.1c0.7-0.2,1.5-0.4,2.2-0.7c0.7-0.3,1.5-0.3,2.3-0.5c0.8-0.2,1.5-0.3,2.3-0.4l1.2-0.1l0.6-0.1l0.3,0l0.1,0l0.1,0l0,0c0.1,0-0.1,0,0.1,0c1.5,0,2.9-0.1,4.5,0.2c0.8,0.1,1.6,0.1,2.4,0.3c0.8,0.2,1.5,0.3,2.3,0.5c3,0.8,5.9,2,8.5,3.6c2.6,1.6,4.9,3.4,6.8,5.4c1,1,1.8,2.1,2.7,3.1c0.8,1.1,1.5,2.1,2.1,3.2c0.6,1.1,1.2,2.1,1.6,3.1c0.4,1,0.9,2,1.2,3c0.3,1,0.6,1.9,0.8,2.7c0.2,0.9,0.3,1.6,0.5,2.4c0.1,0.4,0.1,0.7,0.2,1c0,0.3,0.1,0.6,0.1,0.9c0.1,0.6,0.1,1,0.1,1.4C74,39.6,74,40,74,40c0.2,2.2-1.5,4.1-3.7,4.3s-4.1-1.5-4.3-3.7c0-0.1,0-0.2,0-0.3l0-0.4c0,0,0-0.3,0-0.9c0-0.3,0-0.7,0-1.1c0-0.2,0-0.5,0-0.7c0-0.2-0.1-0.5-0.1-0.8c-0.1-0.6-0.1-1.2-0.2-1.9c-0.1-0.7-0.3-1.4-0.4-2.2c-0.2-0.8-0.5-1.6-0.7-2.4c-0.3-0.8-0.7-1.7-1.1-2.6c-0.5-0.9-0.9-1.8-1.5-2.7c-0.6-0.9-1.2-1.8-1.9-2.7c-1.4-1.8-3.2-3.4-5.2-4.9c-2-1.5-4.4-2.7-6.9-3.6c-0.6-0.2-1.3-0.4-1.9-0.6c-0.7-0.2-1.3-0.3-1.9-0.4c-1.2-0.3-2.8-0.4-4.2-0.5l-2,0c-0.7,0-1.4,0.1-2.1,0.1c-0.7,0.1-1.4,0.1-2,0.3c-0.7,0.1-1.3,0.3-2,0.4c-2.6,0.7-5.2,1.7-7.5,3.1c-2.2,1.4-4.3,2.9-6,4.7c-0.9,0.8-1.6,1.8-2.4,2.7c-0.7,0.9-1.3,1.9-1.9,2.8c-0.5,1-1,1.9-1.4,2.8c-0.4,0.9-0.8,1.8-1,2.6c-0.3,0.9-0.5,1.6-0.7,2.4c-0.2,0.7-0.3,1.4-0.4,2.1c-0.1,0.3-0.1,0.6-0.2,0.9c0,0.3-0.1,0.6-0.1,0.8c0,0.5-0.1,0.9-0.1,1.3C10,39.6,10,40,10,40z"> <animateTransform attributeType="xml" attributeName="transform" type="rotate" from="0 40 40" to="360 40 40" dur="0.8s" repeatCount="indefinite"></animateTransform> </path> <path fill="currentColor" d="M62,40.1c0,0,0,0.2-0.1,0.7c0,0.2,0,0.5-0.1,0.8c0,0.2,0,0.3,0,0.5c0,0.2-0.1,0.4-0.1,0.7 c-0.1,0.5-0.2,1-0.3,1.6c-0.2,0.5-0.3,1.1-0.5,1.8c-0.2,0.6-0.5,1.3-0.7,1.9c-0.3,0.7-0.7,1.3-1,2.1c-0.4,0.7-0.9,1.4-1.4,2.1 c-0.5,0.7-1.1,1.4-1.7,2c-1.2,1.3-2.7,2.5-4.4,3.6c-1.7,1-3.6,1.8-5.5,2.4c-2,0.5-4,0.7-6.2,0.7c-1.9-0.1-4.1-0.4-6-1.1 c-1.9-0.7-3.7-1.5-5.2-2.6c-1.5-1.1-2.9-2.3-4-3.7c-0.6-0.6-1-1.4-1.5-2c-0.4-0.7-0.8-1.4-1.2-2c-0.3-0.7-0.6-1.3-0.8-2 c-0.2-0.6-0.4-1.2-0.6-1.8c-0.1-0.6-0.3-1.1-0.4-1.6c-0.1-0.5-0.1-1-0.2-1.4c-0.1-0.9-0.1-1.5-0.1-2c0-0.5,0-0.7,0-0.7 s0,0.2,0.1,0.7c0.1,0.5,0,1.1,0.2,2c0.1,0.4,0.2,0.9,0.3,1.4c0.1,0.5,0.3,1,0.5,1.6c0.2,0.6,0.4,1.1,0.7,1.8 c0.3,0.6,0.6,1.2,0.9,1.9c0.4,0.6,0.8,1.3,1.2,1.9c0.5,0.6,1,1.3,1.6,1.8c1.1,1.2,2.5,2.3,4,3.2c1.5,0.9,3.2,1.6,5,2.1 c1.8,0.5,3.6,0.6,5.6,0.6c1.8-0.1,3.7-0.4,5.4-1c1.7-0.6,3.3-1.4,4.7-2.4c1.4-1,2.6-2.1,3.6-3.3c0.5-0.6,0.9-1.2,1.3-1.8 c0.4-0.6,0.7-1.2,1-1.8c0.3-0.6,0.6-1.2,0.8-1.8c0.2-0.6,0.4-1.1,0.5-1.7c0.1-0.5,0.2-1,0.3-1.5c0.1-0.4,0.1-0.8,0.1-1.2 c0-0.2,0-0.4,0.1-0.5c0-0.2,0-0.4,0-0.5c0-0.3,0-0.6,0-0.8c0-0.5,0-0.7,0-0.7c0-1.1,0.9-2,2-2s2,0.9,2,2C62,40,62,40.1,62,40.1z"> <animateTransform attributeType="xml" attributeName="transform" type="rotate" from="0 40 40" to="-360 40 40" dur="1s" repeatCount="indefinite"></animateTransform> </path> </g> </symbol>  <symbol id="st_heart_icon_1" viewBox="0 0 26 22"> <path d="M12.8194 22C12.5802 22 12.3665 21.9145 12.1785 21.7436L3.25614 13.1289L2.87156 12.7444C2.70063 12.5734 2.43569 12.2572 2.07675 11.7957C1.71781 11.3342 1.39305 10.8727 1.10247 10.4112C0.811898 9.94972 0.555509 9.37712 0.333306 8.69341C0.111102 8.00971 0 7.35164 0 6.71922C0 4.61683 0.606787 2.97594 1.82036 1.79655C3.03394 0.617164 4.70901 0.018924 6.84558 0.00183139C7.42673 0.00183139 8.02497 0.104384 8.64031 0.309495C9.25564 0.514607 9.82824 0.796636 10.3581 1.15558C10.888 1.51452 11.3495 1.83928 11.7426 2.12986C12.1357 2.42043 12.4947 2.74519 12.8194 3.10414C13.1613 2.76228 13.5202 2.43752 13.8963 2.12986C14.2723 1.82219 14.7338 1.49743 15.2808 1.15558C15.8277 0.813728 16.4003 0.531699 16.9986 0.309495C17.5968 0.0872916 18.1951 -0.0152612 18.7933 0.00183139C20.9299 0.00183139 22.605 0.600071 23.8185 1.79655C25.0321 2.99303 25.6389 4.6382 25.6389 6.73204C25.6389 8.82588 24.545 10.9667 22.3571 13.1546L13.4604 21.7436C13.2895 21.9145 13.0758 22 12.8194 22Z" fill="currentColor"></path> </symbol> <symbol id="st_heart_icon_2" viewBox="0 0 26 22"> <path d="M23.8185 6.71922C23.8185 5.93296 23.716 5.24926 23.5109 4.66811C23.3058 4.08696 23.0408 3.61691 22.7161 3.25797C22.3913 2.89902 21.9982 2.617 21.5367 2.41189C21.0752 2.20678 20.6308 2.05294 20.2034 1.95039C19.7761 1.84783 19.3061 1.81365 18.7933 1.84783C18.2805 1.88202 17.7507 2.00166 17.2037 2.20677C16.6567 2.41189 16.1269 2.71955 15.6141 3.12978C15.1013 3.54 14.6911 3.88185 14.3834 4.15533C14.0758 4.42881 13.7852 4.71939 13.5117 5.02705C13.3408 5.24926 13.11 5.36036 12.8194 5.36036C12.5289 5.36036 12.2981 5.24926 12.1272 5.02705C11.8879 4.77066 11.5973 4.48009 11.2555 4.15533C10.9136 3.83057 10.5034 3.48872 10.0248 3.12978C9.54622 2.77083 9.01634 2.46316 8.4352 2.20677C7.85405 1.95039 7.32418 1.83074 6.84558 1.84783C6.36699 1.86492 5.89695 1.89911 5.43545 1.95039C4.97395 2.00166 4.52954 2.1555 4.10222 2.41189C3.67491 2.66828 3.28178 2.9503 2.92283 3.25797C2.56389 3.56564 2.29895 4.03568 2.12803 4.66811C1.9571 5.30054 1.85455 5.98424 1.82036 6.71922C1.82036 8.30883 2.71772 10.001 4.51245 11.7957L12.8194 19.7951L21.1264 11.7957C22.9212 10.001 23.8185 8.30883 23.8185 6.71922ZM25.6389 6.71922C25.6389 8.82161 24.545 10.9667 22.3571 13.1546L13.4604 21.7436C13.2895 21.9145 13.0758 22 12.8194 22C12.5631 22 12.3494 21.9145 12.1785 21.7436L3.25614 13.1289L2.87156 12.7444C2.70063 12.5734 2.43569 12.2572 2.07675 11.7957C1.71781 11.3342 1.39305 10.8727 1.10247 10.4112C0.811898 9.94972 0.555509 9.37712 0.333306 8.69341C0.111102 8.00971 0 7.35164 0 6.71922C0 4.61683 0.606787 2.97594 1.82036 1.79655C3.03394 0.617164 4.70901 0.018924 6.84558 0.00183139C7.42673 0.00183139 8.02497 0.104384 8.64031 0.309495C9.25564 0.514607 9.82824 0.796636 10.3581 1.15558C10.888 1.51452 11.3495 1.83928 11.7426 2.12986C12.1357 2.42043 12.4947 2.74519 12.8194 3.10414C13.1613 2.76228 13.5202 2.43752 13.8963 2.12986C14.2723 1.82219 14.7338 1.49743 15.2808 1.15558C15.8277 0.813728 16.4003 0.531699 16.9986 0.309495C17.5968 0.0872916 18.1951 -0.0152612 18.7933 0.00183139C20.9299 0.00183139 22.605 0.600071 23.8185 1.79655C25.0321 2.99303 25.6389 4.63392 25.6389 6.71922Z" fill="currentColor"></path> </symbol> <symbol id="st_heart_icon_3" viewBox="0 0 24 22"> <path d="M16.3249 0.00344247C15.4294 0.00842438 14.5439 0.191304 13.7196 0.541458C12.8954 0.891611 12.149 1.40206 11.5237 2.04314C10.5955 1.08358 9.40198 0.422973 8.096 0.145942C6.79001 -0.13109 5.43106 -0.0119295 4.19322 0.488158C2.95538 0.988245 1.89502 1.84649 1.14797 2.95294C0.400917 4.0594 0.00119245 5.36369 0 6.69873C0 12.821 10.4698 21.424 10.9161 21.7843C11.0879 21.9239 11.3024 22 11.5237 22C11.745 22 11.9596 21.9239 12.1313 21.7843C12.5776 21.424 23.0475 12.821 23.0475 6.69873C23.0416 4.9201 22.3306 3.21639 21.0704 1.96126C19.8102 0.706125 18.1036 0.00204598 16.3249 0.00344247Z" fill="currentColor"></path> </symbol> <symbol id="st_heart_icon_4" viewBox="0 0 24 24"> <path d="M17 1C14.9 1 13.1 2.1 12 3.7C10.9 2.1 9.1 1 7 1C3.7 1 1 3.7 1 7C1 13 12 22 12 22C12 22 23 13 23 7C23 3.7 20.3 1 17 1Z" stroke="currentColor" fill="none" stroke-width="2" stroke-miterlimit="10" stroke-linecap="square"></path> </symbol> <symbol id="st_heart_icon_5" viewBox="0 0 25 23"> <path d="M12.2941 22.2C12.1854 22.2 12.078 22.1728 11.9796 22.1185C11.858 22.0512 8.96953 20.4348 6.03706 17.7871C4.30165 16.2212 2.91694 14.6191 1.91788 13.0247C0.644471 10.9917 0 8.96248 0 6.99413C0 3.24766 3.04765 0.200012 6.79412 0.200012C8.06235 0.200012 9.40953 0.674953 10.5872 1.53813C11.2756 2.04284 11.8619 2.65107 12.2941 3.29684C12.7264 2.65107 13.3126 2.04284 14.0011 1.53813C15.1787 0.674953 16.5259 0.200012 17.7941 0.200012C21.5406 0.200012 24.5882 3.24766 24.5882 6.99413C24.5882 8.96248 23.9425 10.9917 22.6704 13.0247C21.6726 14.6191 20.2866 16.2212 18.5525 17.7871C15.62 20.4348 12.7315 22.0512 12.6099 22.1185C12.5115 22.1728 12.4041 22.2 12.2954 22.2H12.2941ZM6.79412 1.49413C3.762 1.49413 1.29412 3.96201 1.29412 6.99413C1.29412 10.9282 4.33529 14.5026 6.886 16.81C9.16365 18.8702 11.4724 20.3145 12.2941 20.805C13.1159 20.3145 15.4246 18.8702 17.7022 16.81C20.2529 14.5039 23.2941 10.9282 23.2941 6.99413C23.2941 3.96201 20.8262 1.49413 17.7941 1.49413C15.5902 1.49413 13.4498 3.30719 12.9075 4.93389C12.8195 5.19789 12.5724 5.37648 12.2941 5.37648C12.0159 5.37648 11.7687 5.19789 11.6807 4.93389C11.1385 3.30719 8.998 1.49413 6.79412 1.49413Z" fill="currentColor"></path> </symbol> <symbol id="st_heart_icon_6" viewBox="0 0 30 30"> <path fill-rule="evenodd" clip-rule="evenodd" d="M13.527 25.171C13.895 25.605 14.432 25.854 14.998 25.854C15.565 25.854 16.101 25.604 16.469 25.17L25.553 14.427C25.625 14.355 25.686 14.279 25.708 14.236C26.525 13.157 26.957 11.894 26.957 10.583C26.957 7.034 23.796 4.147 19.91 4.147C18.066 4.147 16.304 4.803 14.998 5.96C13.692 4.803 11.93 4.147 10.086 4.147C6.20197 4.147 3.04297 7.035 3.04297 10.583C3.04297 11.914 3.47597 13.182 4.32997 14.296C4.35797 14.333 4.38597 14.37 4.47397 14.457L13.527 25.171ZM5.16757 13.7432C5.16015 13.736 5.15467 13.7307 5.15297 13.729L5.08697 13.641C4.40297 12.75 4.04197 11.692 4.04197 10.583C4.04197 7.585 6.75297 5.147 10.085 5.147C11.835 5.147 13.494 5.823 14.639 7C14.827 7.193 15.168 7.193 15.356 7C16.501 5.822 18.16 5.147 19.91 5.147C23.244 5.147 25.957 7.586 25.957 10.583C25.957 11.674 25.596 12.729 24.911 13.633C24.9076 13.6377 24.9001 13.6476 24.8913 13.6593C24.8741 13.6819 24.8519 13.7111 24.846 13.721C24.822 13.744 24.773 13.799 24.754 13.826L15.705 24.525C15.349 24.947 14.647 24.946 14.29 24.525L5.23697 13.812C5.23243 13.8059 5.19065 13.7655 5.16757 13.7432ZM6.05496 10.528C6.05496 10.804 6.27896 11.028 6.55496 11.028C6.83096 11.028 7.05496 10.805 7.05496 10.528C7.05496 9.146 8.31696 8.021 9.86896 8.021C10.145 8.021 10.369 7.797 10.369 7.521C10.369 7.245 10.145 7.021 9.86896 7.021C7.76596 7.021 6.05496 8.594 6.05496 10.528Z" fill="currentColor"></path> </symbol> <symbol id="st_heart_icon_7" viewBox="0 0 24 24"> <path fill-rule="evenodd" clip-rule="evenodd" d="M7.93517 3.14568C7.19289 2.90606 6.40431 2.84625 5.63439 2.97117C4.86447 3.09608 4.13525 3.40215 3.50681 3.86416C2.87837 4.32616 2.3687 4.93088 2.0198 5.62848L2.0197 5.62869C1.55702 6.55309 1.39713 7.59969 1.5627 8.62007C1.72827 9.64045 2.2109 10.5828 2.94214 11.3135L2.95339 11.3249L12 20.7603L21.0476 11.322L21.0586 11.3107C21.789 10.5801 22.2711 9.63815 22.4365 8.61833C22.6019 7.59853 22.4423 6.55253 21.9802 5.62848C21.6313 4.93088 21.1217 4.32616 20.4932 3.86416C19.8648 3.40215 19.1356 3.09608 18.3657 2.97117C17.5957 2.84625 16.8071 2.90606 16.0649 3.14568C15.3226 3.38529 14.6479 3.79785 14.0963 4.34935L14.0962 4.3495L12.5302 5.9145C12.2373 6.20716 11.7627 6.20716 11.4699 5.9145L9.90386 4.3495L9.90372 4.34935C9.35215 3.79785 8.67744 3.38529 7.93517 3.14568ZM5.39416 1.49053C6.39867 1.32755 7.42753 1.40559 8.39597 1.71821C9.36434 2.03081 10.2446 2.56902 10.9642 3.2885C10.9642 3.28854 10.9643 3.28859 10.9643 3.28864L12 4.32368L13.0357 3.28864C13.0358 3.28859 13.0358 3.28854 13.0359 3.2885C13.7555 2.56902 14.6357 2.03081 15.6041 1.71821C16.5725 1.40559 17.6014 1.32755 18.6059 1.49053C19.6104 1.65351 20.5618 2.05283 21.3817 2.65561C22.2016 3.25838 22.8666 4.04735 23.3218 4.95751L23.3218 4.95757C23.9247 6.16319 24.133 7.52791 23.9172 8.85847C23.7018 10.1863 23.075 11.413 22.1252 12.3655L12.5414 22.363C12.4 22.5106 12.2045 22.594 12.0001 22.594C11.7957 22.594 11.6001 22.5106 11.4587 22.3631L1.87603 12.3687C0.925228 11.4162 0.297651 10.1889 0.0820639 8.86032C-0.133954 7.52906 0.0746316 6.16357 0.678238 4.95751M5.39416 1.49053C4.38965 1.65351 3.43824 2.05283 2.61832 2.65561L5.39416 1.49053ZM2.61832 2.65561C1.79847 3.25834 1.13355 4.04724 0.67834 4.95731L2.61832 2.65561Z" fill="currentColor"></path> </symbol> <symbol id="st_heart_icon_8" viewBox="0 0 22 23"> <path fill-rule="evenodd" clip-rule="evenodd" d="M16.7302 0.0259132C19.5021 0.193902 22 2.51988 22 6.6C22 10.648 19.2591 14.7204 16.6256 17.7175C15.2964 19.2303 13.9686 20.4978 12.9738 21.3869C12.476 21.8317 12.0607 22.1826 11.7691 22.4228C11.6232 22.543 11.5083 22.6355 11.4293 22.6984C11.3898 22.7298 11.3593 22.7538 11.3384 22.7702L11.3145 22.7889L11.308 22.7939L11.3062 22.7952C11.3061 22.7954 11.3054 22.7959 11 22.4C10.7226 22.816 10.7225 22.8159 10.7223 22.8158L10.7199 22.8142L10.7133 22.8097L10.6889 22.7933C10.6678 22.7789 10.6371 22.7579 10.5974 22.7304C10.5179 22.6754 10.4024 22.5942 10.256 22.4885C9.96332 22.277 9.54683 21.9668 9.04778 21.5692C8.05049 20.7745 6.71947 19.6275 5.38677 18.2186C2.74152 15.4222 0 11.5005 0 7.2C0 2.84813 2.46934 0.355268 5.25473 0.102051C7.56833 -0.108276 9.91259 1.24653 10.9998 4.04929C12.0866 1.24442 14.4281 -0.113608 16.7302 0.0259132ZM11 22.4L10.7223 22.8158C10.9008 22.9348 11.1356 22.9269 11.3054 22.7959L11 22.4ZM10.9795 21.7768C10.9376 21.7469 10.8915 21.7139 10.8416 21.6779C10.5601 21.4745 10.1563 21.1738 9.67097 20.7871C8.69951 20.013 7.40553 18.8975 6.11323 17.5314C3.50848 14.7778 1 11.0995 1 7.2C1 3.25186 3.18066 1.29473 5.34527 1.09794C7.51456 0.900736 9.93956 2.4426 10.506 6.07699C10.5439 6.32047 10.7536 6.5 11 6.5C11.2464 6.5 11.4561 6.32047 11.494 6.07699C12.0598 2.44671 14.4863 0.891749 16.6698 1.02408C18.8479 1.15609 21 2.98011 21 6.6C21 10.252 18.4909 14.0796 15.8744 17.0575C14.5786 18.5321 13.2814 19.7709 12.3075 20.6412C11.8208 21.0761 11.4158 21.4182 11.1333 21.651C11.077 21.6973 11.0257 21.7393 10.9795 21.7768Z" fill="currentColor"></path> </symbol>   <symbol id="st_add_icon"><use xlink:href="#st_heart_icon_5"></use></symbol> <symbol id="st_added_icon"><use xlink:href="#st_heart_icon_3"></use></symbol> <symbol id="st_details_icon"><use xlink:href="#st_heart_icon_2"></use></symbol>  <symbol id="st_edit_icon" viewBox="0 0 20 20" fill="none"> <path d="M12.5 3.5L1.75 14.25V18.25H5.75L16.5 7.5M12.5 3.5L13.4216 2.57843C13.952 2.04799 14.6714 1.75 15.4216 1.75C16.9837 1.75 18.25 3.01633 18.25 4.57843C18.25 5.32857 17.952 6.04799 17.4216 6.57843L16.5 7.5M12.5 3.5L16.5 7.5" stroke="currentColor" stroke-width="1.5" stroke-linejoin="round"></path> </symbol> <symbol id="st_close_icon" viewBox="0 0 20 20" fill="none"> <path d="M14.25 5.75L5.75 14.25M5.75 5.75L14.25 14.25" stroke="currentColor" stroke-width="1.5" stroke-linecap="round" stroke-linejoin="round"></path> </symbol> <symbol id="st_check_icon" viewBox="0 0 20 20" fill="none"> <path d="M3.75 9.75L8 14.25L16.25 5.75" stroke="currentColor" stroke-width="1.5" stroke-linecap="round" stroke-linejoin="round"></path> </symbol> <symbol id="st_plus_icon" viewBox="0 0 20 20" fill="none"> <path d="M4.75 10.0006H15.25M10 4.75049V15.2505" stroke="currentColor" stroke-width="1.5" stroke-linecap="round" stroke-linejoin="round"></path> </symbol> <symbol id="st_grid_1_icon" viewBox="0 0 20 20" fill="none"> <path d="M1.75 4.95C1.75 3.8299 1.75 3.26984 1.96799 2.84202C2.15973 2.46569 2.46569 2.15973 2.84202 1.96799C3.26984 1.75 3.82989 1.75 4.95 1.75H15.05C16.1701 1.75 16.7302 1.75 17.158 1.96799C17.5343 2.15973 17.8403 2.46569 18.032 2.84202C18.25 3.26984 18.25 3.8299 18.25 4.95V5.05C18.25 6.1701 18.25 6.73016 18.032 7.15798C17.8403 7.53431 17.5343 7.84027 17.158 8.03201C16.7302 8.25 16.1701 8.25 15.05 8.25H4.95C3.82989 8.25 3.26984 8.25 2.84202 8.03201C2.46569 7.84027 2.15973 7.53431 1.96799 7.15798C1.75 6.73016 1.75 6.1701 1.75 5.05V4.95Z" stroke="currentColor" stroke-width="1.5" stroke-linejoin="round"></path> <path d="M1.75 14.95C1.75 13.8299 1.75 13.2698 1.96799 12.842C2.15973 12.4657 2.46569 12.1597 2.84202 11.968C3.26984 11.75 3.82989 11.75 4.95 11.75H15.05C16.1701 11.75 16.7302 11.75 17.158 11.968C17.5343 12.1597 17.8403 12.4657 18.032 12.842C18.25 13.2698 18.25 13.8299 18.25 14.95V15.05C18.25 16.1701 18.25 16.7302 18.032 17.158C17.8403 17.5343 17.5343 17.8403 17.158 18.032C16.7302 18.25 16.1701 18.25 15.05 18.25H4.95C3.82989 18.25 3.26984 18.25 2.84202 18.032C2.46569 17.8403 2.15973 17.5343 1.96799 17.158C1.75 16.7302 1.75 16.1701 1.75 15.05V14.95Z" stroke="currentColor" stroke-width="1.5" stroke-linejoin="round"></path> </symbol> <symbol id="st_grid_3_icon" viewBox="0 0 20 20" fill="none"> <path d="M1.75 4.95C1.75 3.8299 1.75 3.26984 1.96799 2.84202C2.15973 2.46569 2.46569 2.15973 2.84202 1.96799C3.26984 1.75 3.8299 1.75 4.95 1.75H5.05C6.1701 1.75 6.73016 1.75 7.15798 1.96799C7.53431 2.15973 7.84027 2.46569 8.03201 2.84202C8.25 3.26984 8.25 3.8299 8.25 4.95V5.05C8.25 6.1701 8.25 6.73016 8.03201 7.15798C7.84027 7.53431 7.53431 7.84027 7.15798 8.03201C6.73016 8.25 6.1701 8.25 5.05 8.25H4.95C3.8299 8.25 3.26984 8.25 2.84202 8.03201C2.46569 7.84027 2.15973 7.53431 1.96799 7.15798C1.75 6.73016 1.75 6.1701 1.75 5.05V4.95Z" stroke="currentColor" stroke-width="1.5" stroke-linejoin="round"></path> <path d="M11.75 4.95C11.75 3.8299 11.75 3.26984 11.968 2.84202C12.1597 2.46569 12.4657 2.15973 12.842 1.96799C13.2698 1.75 13.8299 1.75 14.95 1.75H15.05C16.1701 1.75 16.7302 1.75 17.158 1.96799C17.5343 2.15973 17.8403 2.46569 18.032 2.84202C18.25 3.26984 18.25 3.8299 18.25 4.95V5.05C18.25 6.1701 18.25 6.73016 18.032 7.15798C17.8403 7.53431 17.5343 7.84027 17.158 8.03201C16.7302 8.25 16.1701 8.25 15.05 8.25H14.95C13.8299 8.25 13.2698 8.25 12.842 8.03201C12.4657 7.84027 12.1597 7.53431 11.968 7.15798C11.75 6.73016 11.75 6.1701 11.75 5.05V4.95Z" stroke="currentColor" stroke-width="1.5" stroke-linejoin="round"></path> <path d="M1.75 14.95C1.75 13.8299 1.75 13.2698 1.96799 12.842C2.15973 12.4657 2.46569 12.1597 2.84202 11.968C3.26984 11.75 3.8299 11.75 4.95 11.75H5.05C6.1701 11.75 6.73016 11.75 7.15798 11.968C7.53431 12.1597 7.84027 12.4657 8.03201 12.842C8.25 13.2698 8.25 13.8299 8.25 14.95V15.05C8.25 16.1701 8.25 16.7302 8.03201 17.158C7.84027 17.5343 7.53431 17.8403 7.15798 18.032C6.73016 18.25 6.1701 18.25 5.05 18.25H4.95C3.8299 18.25 3.26984 18.25 2.84202 18.032C2.46569 17.8403 2.15973 17.5343 1.96799 17.158C1.75 16.7302 1.75 16.1701 1.75 15.05V14.95Z" stroke="currentColor" stroke-width="1.5" stroke-linejoin="round"></path> <path d="M11.75 14.95C11.75 13.8299 11.75 13.2698 11.968 12.842C12.1597 12.4657 12.4657 12.1597 12.842 11.968C13.2698 11.75 13.8299 11.75 14.95 11.75H15.05C16.1701 11.75 16.7302 11.75 17.158 11.968C17.5343 12.1597 17.8403 12.4657 18.032 12.842C18.25 13.2698 18.25 13.8299 18.25 14.95V15.05C18.25 16.1701 18.25 16.7302 18.032 17.158C17.8403 17.5343 17.5343 17.8403 17.158 18.032C16.7302 18.25 16.1701 18.25 15.05 18.25H14.95C13.8299 18.25 13.2698 18.25 12.842 18.032C12.4657 17.8403 12.1597 17.5343 11.968 17.158C11.75 16.7302 11.75 16.1701 11.75 15.05V14.95Z" stroke="currentColor" stroke-width="1.5" stroke-linejoin="round"></path> </symbol> <symbol id="st_settings_icon" viewBox="0 0 20 20" fill="none"> <path d="M12 3.25C12 2.42157 11.3284 1.75 10.5 1.75H9.5C8.67157 1.75 8 2.42157 8 3.25V3.96448C8 4.40993 7.46143 4.63301 7.14645 4.31803L6.64125 3.81283C6.05546 3.22705 5.10571 3.22705 4.51993 3.81283L3.81282 4.51994C3.22703 5.10573 3.22703 6.05547 3.81282 6.64126L4.31801 7.14645C4.63299 7.46143 4.40991 8 3.96445 8L3.25 8C2.42157 8 1.75 8.67157 1.75 9.5L1.75 10.5C1.75 11.3284 2.42157 12 3.25 12H3.96442C4.40988 12 4.63296 12.5386 4.31798 12.8536L3.81281 13.3587C3.22703 13.9445 3.22703 14.8942 3.81281 15.48L4.51992 16.1871C5.10571 16.7729 6.05545 16.7729 6.64124 16.1871L7.14645 15.6819C7.46143 15.367 8 15.59 8 16.0355V16.75C8 17.5784 8.67157 18.25 9.5 18.25H10.5C11.3284 18.25 12 17.5784 12 16.75V16.0355C12 15.5901 12.5386 15.367 12.8536 15.682L13.3588 16.1872C13.9445 16.773 14.8943 16.773 15.4801 16.1872L16.1872 15.4801C16.773 14.8943 16.773 13.9446 16.1872 13.3588L15.682 12.8536C15.367 12.5386 15.5901 12 16.0355 12H16.75C17.5784 12 18.25 11.3284 18.25 10.5V9.5C18.25 8.67157 17.5784 8 16.75 8L16.0355 8C15.59 8 15.367 7.46143 15.6819 7.14645L16.1872 6.6412C16.773 6.05541 16.773 5.10567 16.1872 4.51988L15.4801 3.81277C14.8943 3.22699 13.9445 3.22699 13.3588 3.81277L12.8536 4.31798C12.5386 4.63296 12 4.40988 12 3.96442V3.25Z" stroke="currentColor" stroke-width="1.5" stroke-linejoin="round"></path> <path d="M12.75 10C12.75 11.5188 11.5188 12.75 10 12.75C8.48122 12.75 7.25 11.5188 7.25 10C7.25 8.48122 8.48122 7.25 10 7.25C11.5188 7.25 12.75 8.48122 12.75 10Z" stroke="currentColor" stroke-width="1.5" stroke-linejoin="round"></path> </symbol> <symbol id="st_loading_icon" viewBox="0 0 80 80"> <g> <path fill="currentColor" d="M10,40c0,0,0-0.4,0-1.1c0-0.3,0-0.8,0-1.3c0-0.3,0-0.5,0-0.8c0-0.3,0.1-0.6,0.1-0.9c0.1-0.6,0.1-1.4,0.2-2.1c0.2-0.8,0.3-1.6,0.5-2.5c0.2-0.9,0.6-1.8,0.8-2.8c0.3-1,0.8-1.9,1.2-3c0.5-1,1.1-2,1.7-3.1c0.7-1,1.4-2.1,2.2-3.1c1.6-2.1,3.7-3.9,6-5.6c2.3-1.7,5-3,7.9-4.1c0.7-0.2,1.5-0.4,2.2-0.7c0.7-0.3,1.5-0.3,2.3-0.5c0.8-0.2,1.5-0.3,2.3-0.4l1.2-0.1l0.6-0.1l0.3,0l0.1,0l0.1,0l0,0c0.1,0-0.1,0,0.1,0c1.5,0,2.9-0.1,4.5,0.2c0.8,0.1,1.6,0.1,2.4,0.3c0.8,0.2,1.5,0.3,2.3,0.5c3,0.8,5.9,2,8.5,3.6c2.6,1.6,4.9,3.4,6.8,5.4c1,1,1.8,2.1,2.7,3.1c0.8,1.1,1.5,2.1,2.1,3.2c0.6,1.1,1.2,2.1,1.6,3.1c0.4,1,0.9,2,1.2,3c0.3,1,0.6,1.9,0.8,2.7c0.2,0.9,0.3,1.6,0.5,2.4c0.1,0.4,0.1,0.7,0.2,1c0,0.3,0.1,0.6,0.1,0.9c0.1,0.6,0.1,1,0.1,1.4C74,39.6,74,40,74,40c0.2,2.2-1.5,4.1-3.7,4.3s-4.1-1.5-4.3-3.7c0-0.1,0-0.2,0-0.3l0-0.4c0,0,0-0.3,0-0.9c0-0.3,0-0.7,0-1.1c0-0.2,0-0.5,0-0.7c0-0.2-0.1-0.5-0.1-0.8c-0.1-0.6-0.1-1.2-0.2-1.9c-0.1-0.7-0.3-1.4-0.4-2.2c-0.2-0.8-0.5-1.6-0.7-2.4c-0.3-0.8-0.7-1.7-1.1-2.6c-0.5-0.9-0.9-1.8-1.5-2.7c-0.6-0.9-1.2-1.8-1.9-2.7c-1.4-1.8-3.2-3.4-5.2-4.9c-2-1.5-4.4-2.7-6.9-3.6c-0.6-0.2-1.3-0.4-1.9-0.6c-0.7-0.2-1.3-0.3-1.9-0.4c-1.2-0.3-2.8-0.4-4.2-0.5l-2,0c-0.7,0-1.4,0.1-2.1,0.1c-0.7,0.1-1.4,0.1-2,0.3c-0.7,0.1-1.3,0.3-2,0.4c-2.6,0.7-5.2,1.7-7.5,3.1c-2.2,1.4-4.3,2.9-6,4.7c-0.9,0.8-1.6,1.8-2.4,2.7c-0.7,0.9-1.3,1.9-1.9,2.8c-0.5,1-1,1.9-1.4,2.8c-0.4,0.9-0.8,1.8-1,2.6c-0.3,0.9-0.5,1.6-0.7,2.4c-0.2,0.7-0.3,1.4-0.4,2.1c-0.1,0.3-0.1,0.6-0.2,0.9c0,0.3-0.1,0.6-0.1,0.8c0,0.5-0.1,0.9-0.1,1.3C10,39.6,10,40,10,40z"> <animateTransform attributeType="xml" attributeName="transform" type="rotate" from="0 40 40" to="360 40 40" dur="0.8s" repeatCount="indefinite"></animateTransform> </path> <path fill="currentColor" d="M62,40.1c0,0,0,0.2-0.1,0.7c0,0.2,0,0.5-0.1,0.8c0,0.2,0,0.3,0,0.5c0,0.2-0.1,0.4-0.1,0.7 c-0.1,0.5-0.2,1-0.3,1.6c-0.2,0.5-0.3,1.1-0.5,1.8c-0.2,0.6-0.5,1.3-0.7,1.9c-0.3,0.7-0.7,1.3-1,2.1c-0.4,0.7-0.9,1.4-1.4,2.1 c-0.5,0.7-1.1,1.4-1.7,2c-1.2,1.3-2.7,2.5-4.4,3.6c-1.7,1-3.6,1.8-5.5,2.4c-2,0.5-4,0.7-6.2,0.7c-1.9-0.1-4.1-0.4-6-1.1 c-1.9-0.7-3.7-1.5-5.2-2.6c-1.5-1.1-2.9-2.3-4-3.7c-0.6-0.6-1-1.4-1.5-2c-0.4-0.7-0.8-1.4-1.2-2c-0.3-0.7-0.6-1.3-0.8-2 c-0.2-0.6-0.4-1.2-0.6-1.8c-0.1-0.6-0.3-1.1-0.4-1.6c-0.1-0.5-0.1-1-0.2-1.4c-0.1-0.9-0.1-1.5-0.1-2c0-0.5,0-0.7,0-0.7 s0,0.2,0.1,0.7c0.1,0.5,0,1.1,0.2,2c0.1,0.4,0.2,0.9,0.3,1.4c0.1,0.5,0.3,1,0.5,1.6c0.2,0.6,0.4,1.1,0.7,1.8 c0.3,0.6,0.6,1.2,0.9,1.9c0.4,0.6,0.8,1.3,1.2,1.9c0.5,0.6,1,1.3,1.6,1.8c1.1,1.2,2.5,2.3,4,3.2c1.5,0.9,3.2,1.6,5,2.1 c1.8,0.5,3.6,0.6,5.6,0.6c1.8-0.1,3.7-0.4,5.4-1c1.7-0.6,3.3-1.4,4.7-2.4c1.4-1,2.6-2.1,3.6-3.3c0.5-0.6,0.9-1.2,1.3-1.8 c0.4-0.6,0.7-1.2,1-1.8c0.3-0.6,0.6-1.2,0.8-1.8c0.2-0.6,0.4-1.1,0.5-1.7c0.1-0.5,0.2-1,0.3-1.5c0.1-0.4,0.1-0.8,0.1-1.2 c0-0.2,0-0.4,0.1-0.5c0-0.2,0-0.4,0-0.5c0-0.3,0-0.6,0-0.8c0-0.5,0-0.7,0-0.7c0-1.1,0.9-2,2-2s2,0.9,2,2C62,40,62,40.1,62,40.1z"> <animateTransform attributeType="xml" attributeName="transform" type="rotate" from="0 40 40" to="-360 40 40" dur="1s" repeatCount="indefinite"></animateTransform> </path> </g> </symbol></svg>