<svg xmlns="http://www.w3.org/2000/svg" width="16" height="16" viewBox="0 0 16 16" fill="none">
        <g clip-path="url(#clip0_2936_1304)">
        <path d="M14.8413 4.34057V4.32914C14.8338 4.17599 14.8298 4.01314 14.8258 3.83199C14.8174 3.40457 14.6473 2.99622 14.3498 2.68914C14.0513 2.38087 13.6479 2.1959 13.2195 2.17085C11.367 2.06799 9.93384 1.46857 8.71098 0.283423L8.69955 0.273137C8.50864 0.0974896 8.25869 0 7.99926 0C7.73984 0 7.48989 0.0974896 7.29898 0.273137L7.28926 0.283423C6.06469 1.46857 4.63269 2.06742 2.77898 2.17142C2.35067 2.19632 1.9473 2.38108 1.64869 2.68914C1.35146 2.9963 1.18159 3.40464 1.17326 3.83199C1.17041 4.01371 1.16583 4.17485 1.15898 4.32914V4.35885C1.12355 6.23542 1.07783 8.57028 1.86412 10.688C2.27809 11.8253 2.94315 12.8546 3.80983 13.6994C4.78698 14.6469 6.06926 15.4 7.61783 15.9371C7.86583 16.0217 8.13498 16.0217 8.38355 15.9371C9.92926 15.3989 11.2093 14.6457 12.187 13.6977C13.0531 12.8526 13.7179 11.8233 14.1321 10.6863C14.9207 8.56057 14.8778 6.22114 14.8407 4.34228V4.34114L14.8413 4.34057ZM13.2453 10.3611C12.4167 12.5954 10.7241 14.128 8.07098 15.0497C8.02495 15.066 7.97472 15.066 7.92869 15.0497C5.27326 14.1297 3.57898 12.5966 2.75098 10.3634C2.02526 8.40914 2.06812 6.26628 2.10355 4.37599V4.36514C2.11155 4.20285 2.11498 4.03314 2.11841 3.84571C2.12241 3.65599 2.19841 3.47485 2.33041 3.33828C2.46333 3.20151 2.64283 3.11971 2.83326 3.10914C3.88126 3.05028 4.80241 2.84914 5.64755 2.49371C6.50193 2.13227 7.28033 1.61268 7.94183 0.96228C7.95793 0.947624 7.97892 0.939501 8.00069 0.939501C8.02246 0.939501 8.04345 0.947624 8.05955 0.96228C8.72025 1.61232 9.49766 2.13188 10.351 2.49371C11.1967 2.84914 12.1173 3.05028 13.1653 3.10914C13.3561 3.11999 13.5355 3.20171 13.6681 3.33828C13.8007 3.47542 13.8761 3.65599 13.8801 3.84571C13.8824 4.03428 13.8887 4.20399 13.8955 4.36571C13.931 6.25828 13.971 8.40399 13.2441 10.3611H13.2453Z" fill="#151414"></path>
        <path d="M7.99947 4.01318C6.93653 4.01382 5.91686 4.43422 5.16233 5.1829C4.7902 5.55218 4.49474 5.99138 4.29292 6.47524C4.0911 6.95909 3.98691 7.47807 3.98633 8.00233C3.98728 8.52638 4.09177 9.04508 4.29378 9.52863C4.49579 10.0122 4.79134 10.4511 5.16347 10.82C5.91781 11.5682 6.93701 11.9884 7.99947 11.9892C10.2132 11.9892 12.0138 10.2006 12.0138 8.00233C12.0138 5.8029 10.212 4.01433 7.99947 4.01433V4.01318ZM7.99947 11.0498C7.18689 11.0494 6.4073 10.7282 5.83033 10.156C5.54585 9.87391 5.3199 9.53836 5.16545 9.16867C5.011 8.79897 4.9311 8.40241 4.93033 8.00176C4.93102 7.601 5.01089 7.20433 5.16534 6.83453C5.31979 6.46474 5.54578 6.1291 5.83033 5.8469C6.40739 5.27442 7.18719 4.95301 8.00004 4.95261C8.81281 4.95286 9.59261 5.27406 10.1698 5.84633C10.4543 6.12853 10.6803 6.46416 10.8347 6.83396C10.9892 7.20376 11.0691 7.60043 11.0698 8.00118C11.0691 8.40194 10.9892 8.79861 10.8347 9.16841C10.6803 9.5382 10.4543 9.87384 10.1698 10.156C9.59292 10.7281 8.81357 11.0493 8.00119 11.0498H8.00004H7.99947Z" fill="#151414"></path>
        <path d="M9.15321 6.7623L7.28921 8.61658L6.78293 8.11373C6.71639 8.05047 6.63291 8.00791 6.54263 7.99123C6.45236 7.97454 6.35918 7.98445 6.27442 8.01974C6.18967 8.05503 6.117 8.11419 6.06525 8.19002C6.0135 8.26585 5.9849 8.35508 5.98293 8.44687C5.98184 8.57014 6.02949 8.68885 6.1155 8.77715L6.95493 9.61201C7.04344 9.7005 7.16348 9.75022 7.28864 9.75022C7.41381 9.75022 7.53384 9.7005 7.62236 9.61201L9.82121 7.42687C9.88567 7.36098 9.9292 7.27751 9.94634 7.18695C9.96349 7.09639 9.95347 7.00278 9.91757 6.9179C9.88166 6.83301 9.82146 6.76064 9.74453 6.70987C9.6676 6.65911 9.57738 6.63222 9.48521 6.63258C9.36185 6.63162 9.24296 6.67876 9.15379 6.76401V6.7623H9.15321Z" fill="#151414"></path>
        </g>
      </svg>