<svg xmlns="http://www.w3.org/2000/svg" width="18" height="18" viewBox="0 0 18 18" fill="none">
        <path fill-rule="evenodd" clip-rule="evenodd" d="M0.666748 8.99996C0.666748 4.39746 4.39758 0.666626 9.00008 0.666626C13.6026 0.666626 17.3334 4.39746 17.3334 8.99996C17.3334 13.6025 13.6026 17.3333 9.00008 17.3333C4.39758 17.3333 0.666748 13.6025 0.666748 8.99996ZM12.0892 7.92246C12.241 7.76529 12.325 7.55479 12.3231 7.33629C12.3212 7.11779 12.2336 6.90878 12.0791 6.75428C11.9246 6.59977 11.7156 6.51213 11.4971 6.51023C11.2786 6.50833 11.0681 6.59233 10.9109 6.74413L8.16675 9.48829L7.08925 8.41079C6.93208 8.25899 6.72158 8.175 6.50308 8.1769C6.28458 8.1788 6.07557 8.26644 5.92107 8.42094C5.76656 8.57545 5.67892 8.78446 5.67702 9.00296C5.67512 9.22146 5.75912 9.43196 5.91091 9.58913L7.57758 11.2558C7.73385 11.412 7.94578 11.4998 8.16675 11.4998C8.38772 11.4998 8.59964 11.412 8.75591 11.2558L12.0892 7.92246Z" fill="#F2F3EF"></path>
      </svg>